name C:/MyDriveSym/Projects/mobilecap/Data\Session20210823_0002\mocap\ForceDataProcessed\walkingTS2_forces.mot
datacolumns 19
datarows 12
range 0.63950000 0.64500000
endheader 
time	R_ground_force_vx	R_ground_force_vy	R_ground_force_vz	R_ground_force_px	R_ground_force_py	R_ground_force_pz	R_ground_torque_x	R_ground_torque_y	R_ground_torque_z	L_ground_force_vx	L_ground_force_vy	L_ground_force_vz	L_ground_force_px	L_ground_force_py	L_ground_force_pz	L_ground_torque_x	L_ground_torque_y	L_ground_torque_z	
          0.63950000	          0.00000000	          0.00000000	          0.00000000	          0.48472200	          0.00000000	         -0.14543200	          0.00000000	          0.00000000	          0.00000000	       -112.99721800	        806.96258700	         64.65369100	          0.84622100	          0.00600000	         -0.34966700	          0.00000000	          3.29230000	          0.00000000	
          0.64000000	          0.00000000	          0.00000000	          0.00000000	          0.48609500	          0.00000000	         -0.14536400	          0.00000000	          0.00000000	          0.00000000	       -112.87084700	        807.48842500	         64.74304900	          0.84638100	          0.00600000	         -0.34967500	          0.00000000	          3.29867700	          0.00000000	
          0.64050000	          0.00000000	          0.00000000	          0.00000000	          0.48746800	          0.00000000	         -0.14529600	          0.00000000	          0.00000000	          0.00000000	       -112.74077800	        807.99752000	         64.82985800	          0.84654000	          0.00600000	         -0.34968300	          0.00000000	          3.30495900	          0.00000000	
          0.64100000	          0.00000000	          0.00000000	          0.00000000	          0.48884100	          0.00000000	         -0.14522800	          0.00000000	          0.00000000	          0.00000000	       -112.60703100	        808.48986600	         64.91412200	          0.84670000	          0.00600000	         -0.34969100	          0.00000000	          3.31114700	          0.00000000	
          0.64150000	          0.00000000	          0.00000000	          0.00000000	          0.49021400	          0.00000000	         -0.14515900	          0.00000000	          0.00000000	          0.00000000	       -112.46962600	        808.96545700	         64.99584300	          0.84685900	          0.00600000	         -0.34969900	          0.00000000	          3.31724200	          0.00000000	
          0.64200000	          0.00000000	          0.00000000	          0.00000000	          0.49158700	          0.00000000	         -0.14509100	          0.00000000	          0.00000000	          0.00000000	       -112.32858600	        809.42428700	         65.07502400	          0.84701800	          0.00600000	         -0.34970700	          0.00000000	          3.32324100	          0.00000000	
          0.64250000	          0.00000000	          0.00000000	          0.00000000	          0.49296000	          0.00000000	         -0.14502300	          0.00000000	          0.00000000	          0.00000000	       -112.18393200	        809.86635300	         65.15166800	          0.84717700	          0.00600000	         -0.34971500	          0.00000000	          3.32914700	          0.00000000	
          0.64300000	          0.00000000	          0.00000000	          0.00000000	          0.49433300	          0.00000000	         -0.14495500	          0.00000000	          0.00000000	          0.00000000	       -112.03568400	        810.29165000	         65.22578000	          0.84733500	          0.00600000	         -0.34972300	          0.00000000	          3.33495800	          0.00000000	
          0.64350000	          0.00000000	          0.00000000	          0.00000000	          0.49570600	          0.00000000	         -0.14488700	          0.00000000	          0.00000000	          0.00000000	       -111.88386600	        810.70017500	         65.29736300	          0.84749400	          0.00600000	         -0.34973100	          0.00000000	          3.34067400	          0.00000000	
          0.64400000	          0.00000000	          0.00000000	          0.00000000	          0.49708000	          0.00000000	         -0.14481800	          0.00000000	          0.00000000	          0.00000000	       -111.72849800	        811.09192400	         65.36642200	          0.84765200	          0.00600000	         -0.34973900	          0.00000000	          3.34629600	          0.00000000	
          0.64450000	          0.00000000	          0.00000000	          0.00000000	          0.49845300	          0.00000000	         -0.14475000	          0.00000000	          0.00000000	          0.00000000	       -111.56960500	        811.46689800	         65.43296200	          0.84781000	          0.00600000	         -0.34974600	          0.00000000	          3.35182300	          0.00000000	
          0.64500000	          0.00000000	          0.00000000	          0.00000000	          0.49982600	          0.00000000	         -0.14468200	          0.00000000	          0.00000000	          0.00000000	       -111.40720700	        811.82509300	         65.49698800	          0.84796800	          0.00600000	         -0.34975400	          0.00000000	          3.35725600	          0.00000000	
